<svg width="69" height="70" viewBox="0 0 69 70" fill="none" xmlns="http://www.w3.org/2000/svg">
<path fill-rule="evenodd" clip-rule="evenodd" d="M34.324 37.8874C42.9971 37.8874 50.0281 30.7744 50.0281 22.0001C50.0281 13.2259 42.9971 6.11288 34.324 6.11288C25.6509 6.11288 18.6199 13.2259 18.6199 22.0001C18.6199 30.7744 25.6509 37.8874 34.324 37.8874ZM34.324 40.776C44.574 40.776 52.8834 32.3698 52.8834 22.0001C52.8834 11.6305 44.574 3.22429 34.324 3.22429C24.074 3.22429 15.7646 11.6305 15.7646 22.0001C15.7646 32.3698 24.074 40.776 34.324 40.776Z" fill="white"/>
<path fill-rule="evenodd" clip-rule="evenodd" d="M41.0619 33.6325C43.0169 30.7755 44.3175 26.6717 44.3175 22.0001C44.3175 17.3286 43.0169 13.2248 41.0619 10.3678C39.099 7.49955 36.6702 6.11288 34.324 6.11288C31.9777 6.11288 29.549 7.49955 27.5861 10.3678C25.6311 13.2248 24.3305 17.3286 24.3305 22.0001C24.3305 26.6717 25.6311 30.7755 27.5861 33.6325C29.549 36.5007 31.9777 37.8874 34.324 37.8874C36.6702 37.8874 39.099 36.5007 41.0619 33.6325ZM34.324 40.776C41.4201 40.776 47.1728 32.3698 47.1728 22.0001C47.1728 11.6305 41.4201 3.22429 34.324 3.22429C27.2278 3.22429 21.4752 11.6305 21.4752 22.0001C21.4752 32.3698 27.2278 40.776 34.324 40.776Z" fill="white"/>
<path fill-rule="evenodd" clip-rule="evenodd" d="M32.8964 39.3317V4.66858H35.7516V39.3317H32.8964Z" fill="white"/>
<path fill-rule="evenodd" clip-rule="evenodd" d="M17.1923 20.5558H51.4557V23.4444H17.1923V20.5558Z" fill="white"/>
<path fill-rule="evenodd" clip-rule="evenodd" d="M20.0476 11.8901H48.6005V14.7787H20.0476V11.8901Z" fill="white"/>
<path fill-rule="evenodd" clip-rule="evenodd" d="M20.0476 29.2216H48.6005V32.1102H20.0476V29.2216Z" fill="white"/>
<path d="M31.4489 64.0464H32.8765V65.4907H31.4489V64.0464ZM31.4489 56.8249V55.3806H32.8765V56.8249H31.4489ZM15.7448 64.0464V65.4907H14.3172V64.0464H15.7448ZM15.7448 56.8249H14.3172V55.3806H15.7448V56.8249ZM16.4182 56.8249L17.5867 55.9953L19.1642 58.2692H16.4182V56.8249ZM13.7147 53.622L14.7495 52.627L13.7147 53.622ZM10.1357 49.0705L11.3662 48.3379L10.1357 49.0705ZM9.28157 47.6537L10.4942 46.8914L9.28157 47.6537ZM7.20563 43.0521L8.62422 42.8897L7.20563 43.0521ZM7.44705 27.9752L6.09684 27.506L7.44705 27.9752ZM12.5961 29.1486L11.2308 29.571L12.5961 29.1486ZM13.522 35.7497L12.0984 35.8579L13.522 35.7497ZM14.3875 41.0553L15.6287 40.3417L14.3875 41.0553ZM18.9172 47.7148L20.1903 47.0613L17.7676 48.5712L18.9172 47.7148ZM15.9357 41.7698L17.1819 41.0651L17.1959 41.0904L17.2089 41.1164L15.9357 41.7698ZM15.72 39.3847L14.3092 39.1637L15.72 39.3847ZM20.9253 40.674L21.9579 39.6765L22.0013 39.7225L22.0406 39.7722L20.9253 40.674ZM26.1433 47.2779L27.2585 46.3763L27.2744 46.3963L27.2896 46.417L26.1433 47.2779ZM27.8902 50.8659L26.4635 50.9194L27.8902 50.8659ZM28.5215 56.8249V58.2692H27.2573L27.1044 56.9996L28.5215 56.8249ZM30.0212 64.0464V56.8249H32.8765V64.0464H30.0212ZM15.7448 62.6021H31.4489V65.4907H15.7448V62.6021ZM17.1724 56.8249V64.0464H14.3172V56.8249H17.1724ZM16.4182 58.2692H15.7448V55.3806H16.4182V58.2692ZM15.2496 57.6546C14.4562 56.5109 13.6098 55.6069 12.6799 54.617L14.7495 52.627C15.6679 53.6044 16.6554 54.6525 17.5867 55.9953L15.2496 57.6546ZM12.6799 54.617C11.4629 53.3216 10.1299 51.9083 8.9053 49.8029L11.3662 48.3379C12.4081 50.1294 13.5332 51.3324 14.7495 52.627L12.6799 54.617ZM8.9053 49.8029C8.63056 49.3306 8.35046 48.8743 8.06894 48.416L10.4942 46.8914C10.7732 47.3457 11.0712 47.8308 11.3662 48.3379L8.9053 49.8029ZM8.06894 48.416C7.11118 46.8566 5.99772 45.0986 5.78704 43.2144L8.62422 42.8897C8.74754 43.9926 9.42797 45.1555 10.4942 46.8914L8.06894 48.416ZM5.78704 43.2144C5.66943 42.1625 5.58486 38.7407 5.59833 35.4416C5.60514 33.7732 5.63715 32.0971 5.70554 30.7205C5.73967 30.0333 5.78357 29.4059 5.84002 28.8845C5.89231 28.4014 5.96655 27.8897 6.09684 27.506L8.79725 28.4443C8.79815 28.4417 8.79276 28.4576 8.78319 28.4983C8.77397 28.5378 8.76306 28.5909 8.75108 28.6597C8.72693 28.7982 8.7023 28.9775 8.67833 29.199C8.63039 29.6419 8.58993 30.2071 8.55722 30.8655C8.49192 32.1801 8.46032 33.8074 8.45359 35.4535C8.44 38.7835 8.5286 42.0344 8.62422 42.8897L5.78704 43.2144ZM6.09684 27.506C6.61854 25.9695 8.23004 24.9776 9.83636 25.0158C11.6547 25.0592 13.239 26.3366 13.9613 28.7262L11.2308 29.571C10.782 28.086 10.0857 27.9112 9.76919 27.9037C9.24074 27.891 8.86331 28.2498 8.79725 28.4443L6.09684 27.506ZM13.9613 28.7262C14.5953 30.8238 14.7837 33.4599 14.9456 35.6415L12.0984 35.8579C11.9292 33.5791 11.7526 31.2972 11.2308 29.571L13.9613 28.7262ZM14.9456 35.6415C15.0316 36.8001 15.1089 37.8341 15.2286 38.6981C15.3545 39.6081 15.5031 40.1181 15.6287 40.3417L13.1463 41.769C12.7284 41.025 12.5293 40.027 12.4008 39.0986C12.266 38.124 12.1823 36.9889 12.0984 35.8579L14.9456 35.6415ZM15.6287 40.3417C16.1238 41.223 17.2128 42.8282 18.2199 44.2667C18.7149 44.9739 19.1771 45.6225 19.5158 46.0945C19.685 46.3303 19.8232 46.5218 19.9188 46.6541C19.9666 46.7203 20.0039 46.7716 20.029 46.8062C20.0416 46.8236 20.0511 46.8368 20.0576 46.8455C20.0607 46.85 20.0631 46.8532 20.0647 46.8553C20.0654 46.8565 20.066 46.8572 20.0664 46.8578C20.0666 46.8579 20.0667 46.8582 20.0667 46.8584C20.0668 46.8584 20.0668 46.8584 20.0668 46.8584C20.0668 46.8584 20.0668 46.8584 18.9172 47.7148C17.7676 48.5712 17.7676 48.5712 17.7675 48.571C17.7675 48.571 17.7675 48.5709 17.7673 48.5709C17.7672 48.5706 17.7671 48.5704 17.7668 48.57C17.7663 48.5694 17.7656 48.5686 17.7648 48.5673C17.7631 48.5648 17.7605 48.5613 17.7571 48.5566C17.7504 48.5473 17.7404 48.5336 17.7274 48.5157C17.7012 48.4799 17.6633 48.4273 17.6144 48.3599C17.5168 48.225 17.3766 48.0304 17.205 47.7912C16.8619 47.313 16.393 46.655 15.8897 45.936C14.9001 44.5225 13.7243 42.7979 13.1463 41.769L15.6287 40.3417ZM17.6441 48.3682L14.6625 42.4234L17.2089 41.1164L20.1903 47.0613L17.6441 48.3682ZM15.9357 41.7698C14.6895 42.4746 14.6892 42.4739 14.6888 42.4733C14.6888 42.473 14.6883 42.4725 14.6881 42.472C14.6876 42.4712 14.6872 42.4703 14.6866 42.4693C14.6856 42.4676 14.6846 42.4657 14.6836 42.4638C14.6815 42.4599 14.6794 42.4559 14.6771 42.4515C14.6725 42.443 14.6675 42.4335 14.6622 42.4231C14.6517 42.4023 14.6395 42.3779 14.6265 42.3499C14.6003 42.2938 14.5696 42.2233 14.5372 42.1387C14.4722 41.9691 14.4003 41.743 14.3414 41.4619C14.2232 40.8963 14.1622 40.1239 14.3092 39.1637L17.1308 39.6058C17.0387 40.2077 17.0855 40.6278 17.1349 40.8642C17.16 40.9843 17.1867 41.0614 17.1996 41.095C17.206 41.1119 17.2091 41.118 17.2069 41.1131C17.2056 41.1106 17.2031 41.1054 17.1991 41.0974C17.197 41.0935 17.1946 41.0887 17.1917 41.0833C17.1903 41.0807 17.1887 41.0779 17.1872 41.0748C17.1863 41.0732 17.1854 41.0716 17.1846 41.0701C17.1842 41.0693 17.1837 41.0685 17.1833 41.0676C17.183 41.0672 17.1827 41.0666 17.1826 41.0665C17.1822 41.0657 17.1819 41.0652 15.9357 41.7698ZM14.3092 39.1637C14.4802 38.0461 15.1562 36.8064 15.9872 36.0612C16.3934 35.697 17.0621 35.2501 17.9011 35.2927C18.8783 35.3424 19.5292 36.0068 19.8837 36.7349L17.3222 38.0112C17.2841 37.9329 17.2852 37.9702 17.3665 38.0344C17.4621 38.1101 17.6025 38.1698 17.7579 38.1777C18.0146 38.1907 18.0602 38.0625 17.8811 38.2229C17.7371 38.352 17.5592 38.5759 17.4042 38.8617C17.249 39.148 17.1596 39.4175 17.1308 39.6058L14.3092 39.1637ZM19.8837 36.7349C20.2436 37.4741 20.7563 38.2092 21.2014 38.7791C21.42 39.0592 21.6138 39.2887 21.7516 39.4465C21.8203 39.5252 21.8745 39.5856 21.9104 39.6249C21.9282 39.6445 21.9415 39.6588 21.9496 39.6676C21.9536 39.672 21.9563 39.6749 21.9578 39.6765C21.9585 39.6772 21.9589 39.6776 21.9589 39.6776C21.9589 39.6776 21.9588 39.6775 21.9586 39.6773C21.9585 39.6772 21.9585 39.6772 21.9583 39.677C21.9582 39.6769 21.9582 39.6767 21.958 39.6767C21.9579 39.6766 21.9579 39.6765 20.9253 40.674C19.8928 41.6715 19.8927 41.6713 19.8925 41.6712C19.8925 41.671 19.8924 41.6709 19.8922 41.6707C19.8921 41.6706 19.8918 41.6703 19.8915 41.67C19.891 41.6694 19.8904 41.6689 19.8897 41.668C19.8883 41.6666 19.8865 41.6647 19.8844 41.6624C19.8801 41.6579 19.8745 41.6518 19.8675 41.6443C19.8536 41.6293 19.8343 41.6083 19.8102 41.5818C19.7618 41.5288 19.6941 41.4532 19.611 41.3582C19.4454 41.1683 19.2173 40.898 18.9609 40.5698C18.456 39.9233 17.8076 39.0079 17.3222 38.0112L19.8837 36.7349ZM22.0406 39.7722L27.2585 46.3763L25.0282 48.1798L19.8102 41.5757L22.0406 39.7722ZM26.1433 47.2779C27.2896 46.417 27.2897 46.4173 27.2899 46.4174C27.2899 46.4174 27.29 46.4176 27.2901 46.4177C27.2903 46.418 27.2906 46.4183 27.2907 46.4186C27.2913 46.4193 27.2919 46.42 27.2926 46.421C27.2939 46.4229 27.2957 46.4254 27.2979 46.4284C27.3023 46.4345 27.3083 46.4426 27.3157 46.453C27.3305 46.4736 27.3514 46.5026 27.3774 46.5393C27.4292 46.6127 27.5019 46.7168 27.5885 46.8449C27.7608 47.1001 27.9928 47.457 28.2285 47.8609C28.462 48.2608 28.7125 48.7295 28.912 49.2052C29.1001 49.6544 29.2954 50.2306 29.3168 50.8123L26.4635 50.9194C26.4615 50.8654 26.4269 50.6755 26.2832 50.3328C26.1506 50.0166 25.9674 49.6678 25.77 49.3297C25.5748 48.9953 25.379 48.6936 25.2311 48.4747C25.1575 48.3659 25.0969 48.279 25.0556 48.2206C25.035 48.1916 25.0193 48.1696 25.0092 48.1558C25.0042 48.1487 25.0006 48.1438 24.9985 48.1409C24.9975 48.1396 24.9969 48.1387 24.9966 48.1383C24.9965 48.1382 24.9965 48.1382 24.9965 48.1382C24.9966 48.1383 24.9966 48.1383 24.9968 48.1384C24.9968 48.1386 24.9969 48.1386 24.9969 48.1387C24.9969 48.1387 24.9971 48.1389 26.1433 47.2779ZM29.3168 50.8123C29.3471 51.6374 29.7161 54.8033 29.9387 56.6501L27.1044 56.9996C26.8921 55.238 26.4995 51.9016 26.4635 50.9194L29.3168 50.8123ZM31.4489 58.2692H28.5215V55.3806H31.4489V58.2692Z" fill="white"/>
<path d="M37.1077 64.0464H35.6801V65.4907H37.1077V64.0464ZM37.1077 56.8249V55.3806H35.6801V56.8249H37.1077ZM52.8118 64.0464V65.4907H54.2394V64.0464H52.8118ZM52.8118 56.8249H54.2394V55.3806H52.8118V56.8249ZM52.1383 56.8249L50.9698 55.9953L49.3924 58.2692H52.1383V56.8249ZM54.8419 53.622L53.8071 52.627L54.8419 53.622ZM58.4208 49.0705L57.1905 48.3379L58.4208 49.0705ZM59.275 47.6537L58.0623 46.8914L59.275 47.6537ZM61.3509 43.0521L59.9323 42.8897L61.3509 43.0521ZM61.1095 27.9752L62.4598 27.506L61.1095 27.9752ZM55.9604 29.1486L57.3257 29.571L55.9604 29.1486ZM55.0346 35.7497L56.4582 35.8579L55.0346 35.7497ZM54.169 41.0553L52.9278 40.3417L54.169 41.0553ZM49.6394 47.7148L48.3662 47.0613L50.7889 48.5712L49.6394 47.7148ZM52.6209 41.7698L51.3747 41.0651L51.3607 41.0904L51.3477 41.1164L52.6209 41.7698ZM52.8366 39.3847L54.2474 39.1637L52.8366 39.3847ZM47.6313 40.674L46.5987 39.6765L46.5553 39.7225L46.516 39.7722L47.6313 40.674ZM42.4132 47.2779L41.2981 46.3763L41.2821 46.3963L41.267 46.417L42.4132 47.2779ZM40.6664 50.8659L42.093 50.9194L40.6664 50.8659ZM40.0351 56.8249V58.2692H41.2993L41.4522 56.9996L40.0351 56.8249ZM38.5353 64.0464V56.8249H35.6801V64.0464H38.5353ZM52.8118 62.6021H37.1077V65.4907H52.8118V62.6021ZM51.3841 56.8249V64.0464H54.2394V56.8249H51.3841ZM52.1383 58.2692H52.8118V55.3806H52.1383V58.2692ZM53.307 57.6546C54.1004 56.5109 54.9468 55.6069 55.8766 54.617L53.8071 52.627C52.8887 53.6044 51.9012 54.6525 50.9698 55.9953L53.307 57.6546ZM55.8766 54.617C57.0937 53.3216 58.4267 51.9083 59.6513 49.8029L57.1905 48.3379C56.1484 50.1294 55.0233 51.3324 53.8071 52.627L55.8766 54.617ZM59.6513 49.8029C59.926 49.3306 60.2061 48.8743 60.4876 48.416L58.0623 46.8914C57.7834 47.3457 57.4853 47.8308 57.1905 48.3379L59.6513 49.8029ZM60.4876 48.416C61.4454 46.8566 62.5588 45.0986 62.7696 43.2144L59.9323 42.8897C59.8091 43.9926 59.1286 45.1555 58.0623 46.8914L60.4876 48.416ZM62.7696 43.2144C62.8872 42.1625 62.9717 38.7407 62.9582 35.4416C62.9514 33.7732 62.9195 32.0971 62.8511 30.7205C62.817 30.0333 62.773 29.4059 62.7166 28.8845C62.6642 28.4014 62.59 27.8897 62.4598 27.506L59.7594 28.4443C59.7584 28.4417 59.7638 28.4576 59.7734 28.4983C59.7827 28.5378 59.7935 28.5909 59.8055 28.6597C59.8296 28.7982 59.8543 28.9775 59.8782 29.199C59.9261 29.6419 59.9667 30.2071 59.9994 30.8655C60.0646 32.1801 60.0963 33.8074 60.103 35.4535C60.1166 38.7835 60.0279 42.0344 59.9323 42.8897L62.7696 43.2144ZM62.4598 27.506C61.938 25.9695 60.3266 24.9776 58.7202 25.0158C56.902 25.0592 55.3176 26.3366 54.5953 28.7262L57.3257 29.571C57.7745 28.086 58.4709 27.9112 58.7873 27.9037C59.3158 27.891 59.6933 28.2498 59.7594 28.4443L62.4598 27.506ZM54.5953 28.7262C53.9613 30.8238 53.7728 33.4599 53.611 35.6415L56.4582 35.8579C56.6273 33.5791 56.804 31.2972 57.3257 29.571L54.5953 28.7262ZM53.611 35.6415C53.525 36.8001 53.4476 37.8341 53.328 38.6981C53.2021 39.6081 53.0535 40.1181 52.9278 40.3417L55.4102 41.769C55.8282 41.025 56.0272 40.027 56.1557 39.0986C56.2906 38.124 56.3743 36.9889 56.4582 35.8579L53.611 35.6415ZM52.9278 40.3417C52.4327 41.223 51.3437 42.8282 50.3367 44.2667C49.8417 44.9739 49.3794 45.6225 49.0408 46.0945C48.8716 46.3303 48.7334 46.5218 48.6378 46.6541C48.5899 46.7203 48.5527 46.7716 48.5275 46.8062C48.515 46.8236 48.5054 46.8368 48.499 46.8455C48.4959 46.85 48.4934 46.8532 48.4919 46.8553C48.4911 46.8565 48.4906 46.8572 48.4901 46.8578C48.49 46.8579 48.4899 46.8582 48.4899 46.8584C48.4897 46.8584 48.4897 46.8584 48.4897 46.8584C48.4897 46.8584 48.4897 46.8584 49.6394 47.7148C50.7889 48.5712 50.7889 48.5712 50.7891 48.571C50.7891 48.571 50.7891 48.5709 50.7892 48.5709C50.7894 48.5706 50.7895 48.5704 50.7898 48.57C50.7902 48.5694 50.7909 48.5686 50.7918 48.5673C50.7935 48.5648 50.7961 48.5613 50.7995 48.5566C50.8062 48.5473 50.8162 48.5336 50.8292 48.5157C50.8553 48.4799 50.8933 48.4273 50.9421 48.3599C51.0398 48.225 51.18 48.0304 51.3516 47.7912C51.6946 47.313 52.1636 46.655 52.6669 45.936C53.6565 44.5225 54.8323 42.7979 55.4102 41.769L52.9278 40.3417ZM50.9124 48.3682L53.8941 42.4234L51.3477 41.1164L48.3662 47.0613L50.9124 48.3682ZM52.6209 41.7698C53.8671 42.4746 53.8674 42.4739 53.8678 42.4733C53.8678 42.473 53.8682 42.4725 53.8685 42.472C53.8689 42.4712 53.8694 42.4703 53.8699 42.4693C53.8709 42.4676 53.8719 42.4657 53.8729 42.4638C53.8751 42.4599 53.8772 42.4559 53.8795 42.4515C53.8841 42.443 53.8891 42.4335 53.8943 42.4231C53.9049 42.4023 53.917 42.3779 53.93 42.3499C53.9563 42.2938 53.987 42.2233 54.0194 42.1387C54.0844 41.9691 54.1563 41.743 54.2151 41.4619C54.3333 40.8963 54.3944 40.1239 54.2474 39.1637L51.4258 39.6058C51.5179 40.2077 51.4711 40.6278 51.4217 40.8642C51.3965 40.9843 51.3698 41.0614 51.357 41.095C51.3506 41.1119 51.3474 41.118 51.3497 41.1131C51.351 41.1106 51.3534 41.1054 51.3574 41.0974C51.3596 41.0935 51.362 41.0887 51.3648 41.0833C51.3663 41.0807 51.3678 41.0779 51.3694 41.0748C51.3703 41.0732 51.3711 41.0716 51.372 41.0701C51.3724 41.0693 51.3728 41.0685 51.3733 41.0676C51.3736 41.0672 51.3738 41.0666 51.374 41.0665C51.3744 41.0657 51.3747 41.0652 52.6209 41.7698ZM54.2474 39.1637C54.0764 38.0461 53.4004 36.8064 52.5693 36.0612C52.1632 35.697 51.4945 35.2501 50.6555 35.2927C49.6782 35.3424 49.0274 36.0068 48.6729 36.7349L51.2344 38.0112C51.2725 37.9329 51.2713 37.9702 51.1901 38.0344C51.0945 38.1101 50.9541 38.1698 50.7986 38.1777C50.542 38.1907 50.4964 38.0625 50.6754 38.2229C50.8195 38.352 50.9974 38.5759 51.1524 38.8617C51.3076 39.148 51.397 39.4175 51.4258 39.6058L54.2474 39.1637ZM48.6729 36.7349C48.313 37.4741 47.8003 38.2092 47.3552 38.7791C47.1366 39.0592 46.9427 39.2887 46.805 39.4465C46.7363 39.5252 46.682 39.5856 46.6462 39.6249C46.6284 39.6445 46.6151 39.6588 46.6069 39.6676C46.6029 39.672 46.6002 39.6749 46.5988 39.6765C46.5981 39.6772 46.5977 39.6776 46.5977 39.6776C46.5977 39.6776 46.5978 39.6775 46.5979 39.6773C46.5981 39.6772 46.5981 39.6772 46.5982 39.677C46.5984 39.6769 46.5984 39.6767 46.5985 39.6767C46.5987 39.6766 46.5987 39.6765 47.6313 40.674C48.6637 41.6715 48.6639 41.6713 48.664 41.6712C48.664 41.671 48.6642 41.6709 48.6643 41.6707C48.6645 41.6706 48.6647 41.6703 48.665 41.67C48.6656 41.6694 48.6662 41.6689 48.6669 41.668C48.6683 41.6666 48.67 41.6647 48.6722 41.6624C48.6765 41.6579 48.682 41.6518 48.689 41.6443C48.703 41.6293 48.7223 41.6083 48.7464 41.5818C48.7948 41.5288 48.8625 41.4532 48.9456 41.3582C49.1112 41.1683 49.3393 40.898 49.5957 40.5698C50.1005 39.9233 50.749 39.0079 51.2344 38.0112L48.6729 36.7349ZM46.516 39.7722L41.2981 46.3763L43.5284 48.1798L48.7464 41.5757L46.516 39.7722ZM42.4132 47.2779C41.267 46.417 41.2668 46.4173 41.2667 46.4174C41.2667 46.4174 41.2666 46.4176 41.2664 46.4177C41.2663 46.418 41.266 46.4183 41.2658 46.4186C41.2653 46.4193 41.2647 46.42 41.264 46.421C41.2627 46.4229 41.2609 46.4254 41.2587 46.4284C41.2543 46.4345 41.2483 46.4426 41.2409 46.453C41.226 46.4736 41.2052 46.5026 41.1792 46.5393C41.1274 46.6127 41.0547 46.7168 40.968 46.8449C40.7957 47.1001 40.5637 47.457 40.328 47.8609C40.0946 48.2608 39.8441 48.7295 39.6446 49.2052C39.4565 49.6544 39.2612 50.2306 39.2397 50.8123L42.093 50.9194C42.095 50.8654 42.1297 50.6755 42.2733 50.3328C42.406 50.0166 42.5891 49.6678 42.7866 49.3297C42.9817 48.9953 43.1776 48.6936 43.3255 48.4747C43.399 48.3659 43.4597 48.279 43.501 48.2206C43.5215 48.1916 43.5372 48.1696 43.5474 48.1558C43.5524 48.1487 43.5559 48.1438 43.5581 48.1409C43.5591 48.1396 43.5596 48.1387 43.5599 48.1383C43.5601 48.1382 43.5601 48.1382 43.5601 48.1382C43.5599 48.1383 43.5599 48.1383 43.5598 48.1384C43.5598 48.1386 43.5596 48.1386 43.5596 48.1387C43.5596 48.1387 43.5595 48.1389 42.4132 47.2779ZM39.2397 50.8123C39.2095 51.6374 38.8404 54.8033 38.6179 56.6501L41.4522 56.9996C41.6644 55.238 42.057 51.9016 42.093 50.9194L39.2397 50.8123ZM37.1077 58.2692H40.0351V55.3806H37.1077V58.2692Z" fill="white"/>
</svg>
