<svg width="21" height="21" viewBox="0 0 21 21" fill="none" xmlns="http://www.w3.org/2000/svg">
<path d="M20.1864 18.9798L14.3207 13.1099C15.477 11.7231 16.1726 9.95084 16.1726 8.01516C16.1726 3.59913 12.5484 0.00849152 8.09047 0.00849152C3.63254 0.00849152 0 3.60332 0 8.01935C0 12.4354 3.62416 16.026 8.08209 16.026C9.97587 16.026 11.7188 15.3766 13.1014 14.2914L18.9881 20.1781C19.3316 20.5217 19.8428 20.5217 20.1864 20.1781C20.5299 19.8345 20.5299 19.3234 20.1864 18.9798ZM1.71781 8.01935C1.71781 4.55021 4.57524 1.73049 8.08209 1.73049C11.5889 1.73049 14.4464 4.55021 14.4464 8.01935C14.4464 11.4885 11.5889 14.3082 8.08209 14.3082C4.57524 14.3082 1.71781 11.4843 1.71781 8.01935Z" fill="white"/>
</svg>
