<svg width="9" height="12" viewBox="0 0 9 12" fill="none" xmlns="http://www.w3.org/2000/svg">
<path d="M8.38414 6.24356C8.45603 6.19406 8.51482 6.12782 8.55543 6.05056C8.59604 5.97329 8.61726 5.88731 8.61726 5.80002C8.61726 5.71273 8.59604 5.62675 8.55543 5.54949C8.51482 5.47222 8.45603 5.40599 8.38414 5.35649L1.36956 0.500235C1.28865 0.444024 1.19388 0.41106 1.09556 0.404926C0.997232 0.398791 0.899105 0.419721 0.811838 0.46544C0.724572 0.511159 0.651504 0.579919 0.600572 0.664249C0.549641 0.74858 0.522794 0.845256 0.522949 0.943772L0.52295 10.6563C0.523356 10.7546 0.550548 10.8509 0.601601 10.9349C0.652654 11.0189 0.725638 11.0873 0.812702 11.133C0.899767 11.1786 0.997619 11.1996 1.09573 11.1937C1.19385 11.1879 1.28852 11.1554 1.36956 11.0998L8.38414 6.24356Z" fill="#1A252B" fill-opacity="0.5"/>
</svg>
