<svg width="63" height="50" viewBox="0 0 63 50" fill="none" xmlns="http://www.w3.org/2000/svg">
<rect width="63" height="50" fill="#3182B7"/>
<g clip-path="url(#clip0_841_391)">
<path d="M31.5891 28.3984C32.1981 28.3984 32.5026 27.9634 32.5932 27.262C32.6657 26.2941 32.9521 25.7848 34.1284 24.9782C35.3482 24.1173 36.0297 23.0026 36.0297 21.3786C36.0297 18.977 34.3622 17.3422 31.9298 17.3422C30.0811 17.3422 28.6818 18.2339 28.1236 19.6803C27.9544 20.0753 27.8692 20.5012 27.8734 20.9309C27.8734 21.6432 28.2414 22.0909 28.8613 22.0909C29.3543 22.0909 29.6859 21.8245 29.8835 21.1665C30.1699 20.0935 30.8351 19.5081 31.8301 19.5081C32.9358 19.5081 33.697 20.3165 33.697 21.4729C33.697 22.4933 33.32 23.0769 32.2071 23.8744C31.0852 24.6592 30.5288 25.531 30.5288 26.8469V27.0481C30.5288 27.8238 30.9058 28.3984 31.5891 28.3984Z" fill="white"/>
<path d="M35.6184 15.5534L33.949 13.8424L35.245 12.5772L36.3724 13.7318L37.9855 13.7119C38.6837 13.7036 39.3766 13.835 40.0233 14.0984C40.6701 14.3618 41.2576 14.7519 41.7514 15.2457C42.2452 15.7395 42.6352 16.327 42.8986 16.9737C43.1621 17.6205 43.2935 18.3133 43.2852 19.0116L43.2671 20.6247L44.4199 21.7521C44.9191 22.24 45.3158 22.8227 45.5867 23.4661C45.8576 24.1095 45.9971 24.8005 45.9971 25.4985C45.9971 26.1966 45.8576 26.8876 45.5867 27.531C45.3158 28.1744 44.9191 28.7571 44.4199 29.245L43.2653 30.3724L43.2852 31.9855C43.2935 32.6837 43.1621 33.3766 42.8986 34.0233C42.6352 34.6701 42.2452 35.2576 41.7514 35.7514C41.2576 36.2452 40.6701 36.6352 40.0233 36.8986C39.3766 37.1621 38.6837 37.2935 37.9855 37.2852L36.3724 37.2671L35.245 38.4199C34.7571 38.9191 34.1744 39.3158 33.531 39.5867C32.8876 39.8576 32.1966 39.9971 31.4985 39.9971C30.8005 39.9971 30.1095 39.8576 29.4661 39.5867C28.8227 39.3158 28.24 38.9191 27.7521 38.4199L26.6247 37.2653L25.0116 37.2852C24.3133 37.2935 23.6205 37.1621 22.9737 36.8986C22.327 36.6352 21.7395 36.2452 21.2457 35.7514C20.7519 35.2576 20.3618 34.6701 20.0984 34.0233C19.835 33.3766 19.7036 32.6837 19.7119 31.9855L19.73 30.3724L18.5772 29.245C18.078 28.7571 17.6812 28.1744 17.4104 27.531C17.1395 26.8876 17 26.1966 17 25.4985C17 24.8005 17.1395 24.1095 17.4104 23.4661C17.6812 22.8227 18.078 22.24 18.5772 21.7521L19.7318 20.6247L19.7119 19.0116C19.7036 18.3133 19.835 17.6205 20.0984 16.9737C20.3618 16.327 20.7519 15.7395 21.2457 15.2457C21.7395 14.7519 22.327 14.3618 22.9737 14.0984C23.6205 13.835 24.3133 13.7036 25.0116 13.7119L26.6247 13.73L27.7521 12.5772C28.24 12.078 28.8227 11.6812 29.4661 11.4104C30.1095 11.1395 30.8005 11 31.4985 11C32.1966 11 32.8876 11.1395 33.531 11.4104C34.1744 11.6812 34.7571 12.078 35.245 12.5772L33.949 13.8424C33.63 13.5157 33.2488 13.2562 32.828 13.079C32.4072 12.9017 31.9552 12.8105 31.4985 12.8105C31.0419 12.8105 30.5899 12.9017 30.1691 13.079C29.7483 13.2562 29.3671 13.5157 29.048 13.8424L27.3805 15.5534L24.988 15.5244C24.5316 15.5193 24.0788 15.6054 23.6561 15.7778C23.2335 15.9502 22.8495 16.2053 22.5268 16.5281C22.2041 16.851 21.9492 17.235 21.7771 17.6578C21.6049 18.0805 21.519 18.5334 21.5244 18.9899L21.5534 21.3787L19.8424 23.048C19.5157 23.3671 19.2562 23.7483 19.079 24.1691C18.9017 24.5899 18.8105 25.0419 18.8105 25.4985C18.8105 25.9552 18.9017 26.4072 19.079 26.828C19.2562 27.2488 19.5157 27.63 19.8424 27.949L21.5534 29.6165L21.5244 32.009C21.5193 32.4655 21.6054 32.9183 21.7778 33.341C21.9502 33.7636 22.2053 34.1476 22.5281 34.4703C22.851 34.7929 23.235 35.0478 23.6578 35.22C24.0805 35.3921 24.5334 35.4781 24.9899 35.4727L27.3787 35.4437L29.048 37.1547C29.3671 37.4814 29.7483 37.7409 30.1691 37.9181C30.5899 38.0953 31.0419 38.1866 31.4985 38.1866C31.9552 38.1866 32.4072 38.0953 32.828 37.9181C33.2488 37.7409 33.63 37.4814 33.949 37.1547L35.6165 35.4437L38.009 35.4727C38.4655 35.4778 38.9183 35.3917 39.341 35.2193C39.7636 35.0469 40.1476 34.7918 40.4703 34.469C40.7929 34.1461 41.0478 33.762 41.22 33.3393C41.3921 32.9165 41.4781 32.4637 41.4727 32.0072L41.4437 29.6184L43.1547 27.949C43.4814 27.63 43.7409 27.2488 43.9181 26.828C44.0953 26.4072 44.1866 25.9552 44.1866 25.4985C44.1866 25.0419 44.0953 24.5899 43.9181 24.1691C43.7409 23.7483 43.4814 23.3671 43.1547 23.048L41.4437 21.3805L41.4727 18.988C41.4778 18.5316 41.3917 18.0788 41.2193 17.6561C41.0469 17.2335 40.7918 16.8495 40.469 16.5268C40.1461 16.2041 39.762 15.9492 39.3393 15.7771C38.9165 15.6049 38.4637 15.519 38.0072 15.5244L35.6184 15.5534Z" fill="white"/>
<path d="M29.6877 30.9359C29.6877 30.4552 29.8787 29.9942 30.2186 29.6543C30.5585 29.3144 31.0195 29.1234 31.5002 29.1234C31.9809 29.1234 32.442 29.3144 32.7819 29.6543C33.1218 29.9942 33.3127 30.4552 33.3127 30.9359C33.3127 31.4166 33.1218 31.8776 32.7819 32.2175C32.442 32.5575 31.9809 32.7484 31.5002 32.7484C31.0195 32.7484 30.5585 32.5575 30.2186 32.2175C29.8787 31.8776 29.6877 31.4166 29.6877 30.9359Z" fill="white"/>
</g>
<defs>
<clipPath id="clip0_841_391">
<rect width="29" height="29" fill="white" transform="translate(17 11)"/>
</clipPath>
</defs>
</svg>
