<svg width="63" height="50" viewBox="0 0 63 50" fill="none" xmlns="http://www.w3.org/2000/svg">
<rect width="63" height="50" fill="#3182B7"/>
<path d="M28 26.3333H36M28 31.6666H32M21.3334 14.3333V35.6666C21.3334 36.3739 21.6143 37.0521 22.1144 37.5522C22.6145 38.0523 23.2928 38.3333 24 38.3333H40C40.7073 38.3333 41.3856 38.0523 41.8857 37.5522C42.3858 37.0521 42.6667 36.3739 42.6667 35.6666V20.1226C42.6667 19.7674 42.5956 19.4157 42.4578 19.0883C42.32 18.7609 42.1181 18.4643 41.864 18.216L35.944 12.4266C35.4459 11.9395 34.7768 11.6667 34.08 11.6666H24C23.2928 11.6666 22.6145 11.9476 22.1144 12.4477C21.6143 12.9478 21.3334 13.626 21.3334 14.3333V14.3333Z" stroke="white" stroke-width="2" stroke-linecap="round" stroke-linejoin="round"/>
<path d="M34.6667 11.6666V17C34.6667 17.7072 34.9477 18.3855 35.4478 18.8856C35.9479 19.3857 36.6262 19.6666 37.3334 19.6666H42.6667" stroke="white" stroke-width="2" stroke-linejoin="round"/>
</svg>
