<svg width="63" height="50" viewBox="0 0 63 50" fill="none" xmlns="http://www.w3.org/2000/svg">
<rect width="63" height="50" fill="#3182B7"/>
<path d="M30.0869 30.6493C30.292 30.4439 30.4071 30.1655 30.4069 29.8753C30.4067 29.585 30.2912 29.3067 30.0858 29.1017C29.8804 28.8966 29.602 28.7815 29.3118 28.7817C29.0215 28.7819 28.7432 28.8974 28.5381 29.1028L25.2569 32.384C25.0518 32.5894 24.9367 32.8678 24.9369 33.1581C24.9371 33.4483 25.0526 33.7266 25.258 33.9317C25.4634 34.1367 25.7418 34.2518 26.032 34.2516C26.3223 34.2514 26.6006 34.1359 26.8056 33.9306L30.0869 30.6493ZM42.3281 14.6718C41.6172 13.9608 40.7731 13.3968 39.8442 13.0119C38.9152 12.6271 37.9196 12.4291 36.9141 12.4291C35.9086 12.4291 34.9129 12.6271 33.984 13.0119C33.055 13.3968 32.211 13.9608 31.5 14.6718L20.6719 25.4999C19.236 26.9358 18.4293 28.8833 18.4293 30.914C18.4293 32.9447 19.236 34.8922 20.6719 36.3281C22.1078 37.764 24.0553 38.5706 26.086 38.5706C28.1166 38.5706 30.0641 37.764 31.5 36.3281L42.3281 25.4999C43.0392 24.789 43.6032 23.9449 43.988 23.016C44.3728 22.087 44.5709 21.0914 44.5709 20.0859C44.5709 19.0804 44.3728 18.0847 43.988 17.1558C43.6032 16.2268 43.0392 15.3828 42.3281 14.6718ZM26.8603 22.4068L34.5931 30.1418L29.9556 34.7793C28.9287 35.7976 27.5401 36.3677 26.0939 36.3647C24.6476 36.3618 23.2614 35.786 22.2386 34.7635C21.2158 33.741 20.6397 32.355 20.6363 30.9087C20.633 29.4625 21.2026 28.0738 22.2206 27.0465L26.8581 22.4068H26.8603ZM40.7816 23.9534L36.1419 28.5931L28.4069 20.8624L33.0466 16.2228C33.5535 15.7112 34.1565 15.3048 34.8209 15.027C35.4853 14.7491 36.1981 14.6052 36.9183 14.6035C37.6384 14.6018 38.3519 14.7424 39.0176 15.0172C39.6833 15.292 40.2881 15.6955 40.7975 16.2047C41.3068 16.7139 41.7105 17.3186 41.9855 17.9842C42.2604 18.6499 42.4012 19.3632 42.3997 20.0834C42.3983 20.8036 42.2546 21.5164 41.9769 22.1809C41.6992 22.8454 41.293 23.4485 40.7816 23.9556V23.9534Z" fill="white"/>
</svg>
